<mxfile host="65bd71144e">
    <diagram id="mDNXPp_xGhIweOXCD2YC" name="Page-1">
        <mxGraphModel dx="1543" dy="1113" grid="1" gridSize="10" guides="1" tooltips="1" connect="1" arrows="1" fold="1" page="1" pageScale="1" pageWidth="1100" pageHeight="850" background="none" math="0" shadow="0">
            <root>
                <mxCell id="0"/>
                <mxCell id="1" parent="0"/>
                <mxCell id="13" value="" style="endArrow=open;endFill=1;endSize=12;html=1;exitX=0;exitY=0.5;exitDx=0;exitDy=0;entryX=0.5;entryY=0;entryDx=0;entryDy=0;fillColor=#f5f5f5;strokeColor=#666666;swimlaneLine=1;shadow=0;" parent="1" source="54" target="49" edge="1">
                    <mxGeometry width="160" relative="1" as="geometry">
                        <mxPoint x="615" y="113" as="sourcePoint"/>
                        <mxPoint x="365" y="284" as="targetPoint"/>
                    </mxGeometry>
                </mxCell>
                <mxCell id="24" value="" style="endArrow=open;endFill=1;endSize=12;html=1;exitX=0;exitY=0.5;exitDx=0;exitDy=0;entryX=0.5;entryY=0;entryDx=0;entryDy=0;fillColor=#f5f5f5;strokeColor=#666666;swimlaneLine=1;shadow=0;" parent="1" source="50" target="45" edge="1">
                    <mxGeometry width="160" relative="1" as="geometry">
                        <mxPoint x="265" y="327" as="sourcePoint"/>
                        <mxPoint x="255" y="470" as="targetPoint"/>
                    </mxGeometry>
                </mxCell>
                <mxCell id="25" value="" style="endArrow=open;endFill=1;endSize=12;html=1;exitX=1;exitY=0.5;exitDx=0;exitDy=0;entryX=0.5;entryY=0;entryDx=0;entryDy=0;fillColor=#f5f5f5;strokeColor=#666666;swimlaneLine=1;shadow=0;" parent="1" source="50" target="41" edge="1">
                    <mxGeometry width="160" relative="1" as="geometry">
                        <mxPoint x="465" y="327" as="sourcePoint"/>
                        <mxPoint x="575" y="470" as="targetPoint"/>
                    </mxGeometry>
                </mxCell>
                <mxCell id="26" value="" style="endArrow=open;endFill=1;endSize=12;html=1;exitX=1;exitY=0.5;exitDx=0;exitDy=0;entryX=0.5;entryY=0;entryDx=0;entryDy=0;fillColor=#f5f5f5;strokeColor=#666666;swimlaneLine=1;shadow=0;" parent="1" source="42" target="31" edge="1">
                    <mxGeometry width="160" relative="1" as="geometry">
                        <mxPoint x="675" y="572" as="sourcePoint"/>
                        <mxPoint x="765" y="583" as="targetPoint"/>
                    </mxGeometry>
                </mxCell>
                <mxCell id="31" value="DiffusionProcess" style="swimlane;fontStyle=1;align=center;verticalAlign=top;childLayout=stackLayout;horizontal=1;startSize=26;horizontalStack=0;resizeParent=1;resizeParentMax=0;resizeLast=0;collapsible=1;marginBottom=0;fillColor=#f5f5f5;strokeColor=#666666;fontColor=#333333;swimlaneLine=1;shadow=0;" parent="1" vertex="1">
                    <mxGeometry x="815" y="530" width="160" height="160" as="geometry"/>
                </mxCell>
                <mxCell id="32" value="+ h_dim: int&#10;+ z_dim: int&#10;+ num_layers: int&#10;+ non_linearity: str&#10;+ num_steps: int&#10;" style="text;align=left;verticalAlign=top;spacingLeft=4;spacingRight=4;overflow=hidden;rotatable=0;points=[[0,0.5],[1,0.5]];portConstraint=eastwest;fillColor=#f5f5f5;strokeColor=#666666;fontColor=#333333;swimlaneLine=1;shadow=0;" parent="31" vertex="1">
                    <mxGeometry y="26" width="160" height="84" as="geometry"/>
                </mxCell>
                <mxCell id="33" value="" style="line;strokeWidth=1;align=left;verticalAlign=middle;spacingTop=-1;spacingLeft=3;spacingRight=3;rotatable=0;labelPosition=right;points=[];portConstraint=eastwest;fillColor=#f5f5f5;strokeColor=#666666;fontColor=#333333;swimlaneLine=1;shadow=0;" parent="31" vertex="1">
                    <mxGeometry y="110" width="160" height="8" as="geometry"/>
                </mxCell>
                <mxCell id="34" value="+ forward_transition()&#10;+ backward_transition()" style="text;align=left;verticalAlign=top;spacingLeft=4;spacingRight=4;overflow=hidden;rotatable=0;points=[[0,0.5],[1,0.5]];portConstraint=eastwest;fillColor=#f5f5f5;strokeColor=#666666;fontColor=#333333;swimlaneLine=1;shadow=0;" parent="31" vertex="1">
                    <mxGeometry y="118" width="160" height="42" as="geometry"/>
                </mxCell>
                <mxCell id="36" value="DIS" style="swimlane;fontStyle=1;align=center;verticalAlign=top;childLayout=stackLayout;horizontal=1;startSize=26;horizontalStack=0;resizeParent=1;resizeParentMax=0;resizeLast=0;collapsible=1;marginBottom=0;fillColor=#f5f5f5;strokeColor=#666666;fontColor=#333333;swimlaneLine=1;shadow=0;" parent="1" vertex="1">
                    <mxGeometry x="775" y="740" width="70" height="34" as="geometry"/>
                </mxCell>
                <mxCell id="38" value="" style="line;strokeWidth=1;align=left;verticalAlign=middle;spacingTop=-1;spacingLeft=3;spacingRight=3;rotatable=0;labelPosition=right;points=[];portConstraint=eastwest;fillColor=#f5f5f5;strokeColor=#666666;fontColor=#333333;swimlaneLine=1;shadow=0;" parent="36" vertex="1">
                    <mxGeometry y="26" width="70" height="8" as="geometry"/>
                </mxCell>
                <mxCell id="40" value="" style="endArrow=block;endSize=16;endFill=0;html=1;entryX=0.151;entryY=1.065;entryDx=0;entryDy=0;entryPerimeter=0;exitX=0.5;exitY=0;exitDx=0;exitDy=0;fillColor=#f5f5f5;strokeColor=#666666;swimlaneLine=1;shadow=0;" parent="1" source="36" target="34" edge="1">
                    <mxGeometry width="160" relative="1" as="geometry">
                        <mxPoint x="740" y="780" as="sourcePoint"/>
                        <mxPoint x="900" y="780" as="targetPoint"/>
                    </mxGeometry>
                </mxCell>
                <mxCell id="41" value="LatentEncoder" style="swimlane;fontStyle=1;align=center;verticalAlign=top;childLayout=stackLayout;horizontal=1;startSize=26;horizontalStack=0;resizeParent=1;resizeParentMax=0;resizeLast=0;collapsible=1;marginBottom=0;fillColor=#f5f5f5;strokeColor=#666666;fontColor=#333333;swimlaneLine=1;shadow=0;" parent="1" vertex="1">
                    <mxGeometry x="490" y="390" width="230" height="214" as="geometry"/>
                </mxCell>
                <mxCell id="42" value="+ x_dim: int&#10;+ y_dim: int&#10;+ h_dim: int&#10;+ z_dim: int&#10;+ num_layers: int&#10;+ non_linearity: str&#10;+ aggregation: Aggregation&#10;+ is_attentive: bool&#10;+ diffu_process: DiffusionProcess | None&#10;+ fixed_start_density: bool&#10;" style="text;align=left;verticalAlign=top;spacingLeft=4;spacingRight=4;overflow=hidden;rotatable=0;points=[[0,0.5],[1,0.5]];portConstraint=eastwest;fillColor=#f5f5f5;strokeColor=#666666;fontColor=#333333;swimlaneLine=1;shadow=0;" parent="41" vertex="1">
                    <mxGeometry y="26" width="230" height="154" as="geometry"/>
                </mxCell>
                <mxCell id="43" value="" style="line;strokeWidth=1;align=left;verticalAlign=middle;spacingTop=-1;spacingLeft=3;spacingRight=3;rotatable=0;labelPosition=right;points=[];portConstraint=eastwest;fillColor=#f5f5f5;strokeColor=#666666;fontColor=#333333;swimlaneLine=1;shadow=0;" parent="41" vertex="1">
                    <mxGeometry y="180" width="230" height="8" as="geometry"/>
                </mxCell>
                <mxCell id="44" value="+ forward()" style="text;align=left;verticalAlign=top;spacingLeft=4;spacingRight=4;overflow=hidden;rotatable=0;points=[[0,0.5],[1,0.5]];portConstraint=eastwest;fillColor=#f5f5f5;strokeColor=#666666;fontColor=#333333;swimlaneLine=1;shadow=0;" parent="41" vertex="1">
                    <mxGeometry y="188" width="230" height="26" as="geometry"/>
                </mxCell>
                <mxCell id="45" value="DeterministicEncoder" style="swimlane;fontStyle=1;align=center;verticalAlign=top;childLayout=stackLayout;horizontal=1;startSize=26;horizontalStack=0;resizeParent=1;resizeParentMax=0;resizeLast=0;collapsible=1;marginBottom=0;fillColor=#f5f5f5;strokeColor=#666666;fontColor=#333333;swimlaneLine=1;shadow=0;" parent="1" vertex="1">
                    <mxGeometry x="70" y="390" width="190" height="184" as="geometry"/>
                </mxCell>
                <mxCell id="46" value="+ x_dim: int&#10;+ y_dim: int&#10;+ h_dim: int&#10;+ r_dim: int&#10;+ num_layers: int&#10;+ non_linearity: str&#10;+ aggregation: Aggregation&#10;+ is_attentive: bool&#10;" style="text;align=left;verticalAlign=top;spacingLeft=4;spacingRight=4;overflow=hidden;rotatable=0;points=[[0,0.5],[1,0.5]];portConstraint=eastwest;fillColor=#f5f5f5;strokeColor=#666666;fontColor=#333333;swimlaneLine=1;shadow=0;" parent="45" vertex="1">
                    <mxGeometry y="26" width="190" height="124" as="geometry"/>
                </mxCell>
                <mxCell id="47" value="" style="line;strokeWidth=1;align=left;verticalAlign=middle;spacingTop=-1;spacingLeft=3;spacingRight=3;rotatable=0;labelPosition=right;points=[];portConstraint=eastwest;fillColor=#f5f5f5;strokeColor=#666666;fontColor=#333333;swimlaneLine=1;shadow=0;" parent="45" vertex="1">
                    <mxGeometry y="150" width="190" height="8" as="geometry"/>
                </mxCell>
                <mxCell id="48" value="+ forward()" style="text;align=left;verticalAlign=top;spacingLeft=4;spacingRight=4;overflow=hidden;rotatable=0;points=[[0,0.5],[1,0.5]];portConstraint=eastwest;fillColor=#f5f5f5;strokeColor=#666666;fontColor=#333333;swimlaneLine=1;shadow=0;" parent="45" vertex="1">
                    <mxGeometry y="158" width="190" height="26" as="geometry"/>
                </mxCell>
                <mxCell id="49" value="Encoder" style="swimlane;fontStyle=1;align=center;verticalAlign=top;childLayout=stackLayout;horizontal=1;startSize=26;horizontalStack=0;resizeParent=1;resizeParentMax=0;resizeLast=0;collapsible=1;marginBottom=0;fillColor=#f5f5f5;strokeColor=#666666;fontColor=#333333;swimlaneLine=1;shadow=0;" parent="1" vertex="1">
                    <mxGeometry x="270" y="200" width="230" height="104" as="geometry"/>
                </mxCell>
                <mxCell id="50" value="+ det_enc: DeterministicEncoder | None&#10;+ lat_enc: LatentEncoder | None" style="text;align=left;verticalAlign=top;spacingLeft=4;spacingRight=4;overflow=hidden;rotatable=0;points=[[0,0.5],[1,0.5]];portConstraint=eastwest;fillColor=#f5f5f5;strokeColor=#666666;fontColor=#333333;swimlaneLine=1;shadow=0;" parent="49" vertex="1">
                    <mxGeometry y="26" width="230" height="44" as="geometry"/>
                </mxCell>
                <mxCell id="51" value="" style="line;strokeWidth=1;align=left;verticalAlign=middle;spacingTop=-1;spacingLeft=3;spacingRight=3;rotatable=0;labelPosition=right;points=[];portConstraint=eastwest;fillColor=#f5f5f5;strokeColor=#666666;fontColor=#333333;swimlaneLine=1;shadow=0;" parent="49" vertex="1">
                    <mxGeometry y="70" width="230" height="8" as="geometry"/>
                </mxCell>
                <mxCell id="52" value="+ forward()" style="text;align=left;verticalAlign=top;spacingLeft=4;spacingRight=4;overflow=hidden;rotatable=0;points=[[0,0.5],[1,0.5]];portConstraint=eastwest;fillColor=#f5f5f5;strokeColor=#666666;fontColor=#333333;swimlaneLine=1;shadow=0;" parent="49" vertex="1">
                    <mxGeometry y="78" width="230" height="26" as="geometry"/>
                </mxCell>
                <mxCell id="53" value="NeuralProcess" style="swimlane;fontStyle=1;align=center;verticalAlign=top;childLayout=stackLayout;horizontal=1;startSize=26;horizontalStack=0;resizeParent=1;resizeParentMax=0;resizeLast=0;collapsible=1;marginBottom=0;fillColor=#f5f5f5;strokeColor=#666666;fontColor=#333333;swimlaneLine=1;shadow=0;" parent="1" vertex="1">
                    <mxGeometry x="560" y="20" width="160" height="150" as="geometry"/>
                </mxCell>
                <mxCell id="54" value="+ encoder: Encoder&#10;+ decoder: Decoder" style="text;align=left;verticalAlign=top;spacingLeft=4;spacingRight=4;overflow=hidden;rotatable=0;points=[[0,0.5],[1,0.5]];portConstraint=eastwest;fillColor=#f5f5f5;strokeColor=#666666;fontColor=#333333;swimlaneLine=1;shadow=0;" parent="53" vertex="1">
                    <mxGeometry y="26" width="160" height="44" as="geometry"/>
                </mxCell>
                <mxCell id="55" value="" style="line;strokeWidth=1;align=left;verticalAlign=middle;spacingTop=-1;spacingLeft=3;spacingRight=3;rotatable=0;labelPosition=right;points=[];portConstraint=eastwest;fillColor=#f5f5f5;strokeColor=#666666;fontColor=#333333;swimlaneLine=1;shadow=0;" parent="53" vertex="1">
                    <mxGeometry y="70" width="160" height="8" as="geometry"/>
                </mxCell>
                <mxCell id="56" value="+ encode()&#10;+ decode()&#10;+ forward()&#10;+ sample()" style="text;align=left;verticalAlign=top;spacingLeft=4;spacingRight=4;overflow=hidden;rotatable=0;points=[[0,0.5],[1,0.5]];portConstraint=eastwest;fillColor=#f5f5f5;strokeColor=#666666;fontColor=#333333;swimlaneLine=1;shadow=0;" parent="53" vertex="1">
                    <mxGeometry y="78" width="160" height="72" as="geometry"/>
                </mxCell>
                <mxCell id="57" value="Decoder" style="swimlane;fontStyle=1;align=center;verticalAlign=top;childLayout=stackLayout;horizontal=1;startSize=26;horizontalStack=0;resizeParent=1;resizeParentMax=0;resizeLast=0;collapsible=1;marginBottom=0;fillColor=#f5f5f5;strokeColor=#666666;fontColor=#333333;swimlaneLine=1;shadow=0;" parent="1" vertex="1">
                    <mxGeometry x="775" y="190" width="160" height="144" as="geometry"/>
                </mxCell>
                <mxCell id="58" value="+ input_dim: int&#10;+ h_dim: int&#10;+ y_dim:int&#10;+ num_layers: int&#10;+ non_linearity: str" style="text;align=left;verticalAlign=top;spacingLeft=4;spacingRight=4;overflow=hidden;rotatable=0;points=[[0,0.5],[1,0.5]];portConstraint=eastwest;fillColor=#f5f5f5;strokeColor=#666666;fontColor=#333333;swimlaneLine=1;shadow=0;" parent="57" vertex="1">
                    <mxGeometry y="26" width="160" height="84" as="geometry"/>
                </mxCell>
                <mxCell id="59" value="" style="line;strokeWidth=1;align=left;verticalAlign=middle;spacingTop=-1;spacingLeft=3;spacingRight=3;rotatable=0;labelPosition=right;points=[];portConstraint=eastwest;fillColor=#f5f5f5;strokeColor=#666666;fontColor=#333333;swimlaneLine=1;shadow=0;" parent="57" vertex="1">
                    <mxGeometry y="110" width="160" height="8" as="geometry"/>
                </mxCell>
                <mxCell id="60" value="+ forward()" style="text;align=left;verticalAlign=top;spacingLeft=4;spacingRight=4;overflow=hidden;rotatable=0;points=[[0,0.5],[1,0.5]];portConstraint=eastwest;fillColor=#f5f5f5;strokeColor=#666666;fontColor=#333333;swimlaneLine=1;shadow=0;" parent="57" vertex="1">
                    <mxGeometry y="118" width="160" height="26" as="geometry"/>
                </mxCell>
                <mxCell id="61" value="" style="endArrow=open;endFill=1;endSize=12;html=1;exitX=1;exitY=0.5;exitDx=0;exitDy=0;entryX=0.5;entryY=0;entryDx=0;entryDy=0;fillColor=#f5f5f5;strokeColor=#666666;swimlaneLine=1;shadow=0;" parent="1" source="54" target="57" edge="1">
                    <mxGeometry width="160" relative="1" as="geometry">
                        <mxPoint x="635" y="108" as="sourcePoint"/>
                        <mxPoint x="370" y="250" as="targetPoint"/>
                    </mxGeometry>
                </mxCell>
                <mxCell id="62" value="ULA" style="swimlane;fontStyle=1;align=center;verticalAlign=top;childLayout=stackLayout;horizontal=1;startSize=26;horizontalStack=0;resizeParent=1;resizeParentMax=0;resizeLast=0;collapsible=1;marginBottom=0;fillColor=#f5f5f5;strokeColor=#666666;fontColor=#333333;swimlaneLine=1;shadow=0;" parent="1" vertex="1">
                    <mxGeometry x="875" y="760" width="70" height="34" as="geometry"/>
                </mxCell>
                <mxCell id="63" value="" style="line;strokeWidth=1;align=left;verticalAlign=middle;spacingTop=-1;spacingLeft=3;spacingRight=3;rotatable=0;labelPosition=right;points=[];portConstraint=eastwest;fillColor=#f5f5f5;strokeColor=#666666;fontColor=#333333;swimlaneLine=1;shadow=0;" parent="62" vertex="1">
                    <mxGeometry y="26" width="70" height="8" as="geometry"/>
                </mxCell>
                <mxCell id="64" value="MCD" style="swimlane;fontStyle=1;align=center;verticalAlign=top;childLayout=stackLayout;horizontal=1;startSize=26;horizontalStack=0;resizeParent=1;resizeParentMax=0;resizeLast=0;collapsible=1;marginBottom=0;fillColor=#f5f5f5;strokeColor=#666666;fontColor=#333333;swimlaneLine=1;shadow=0;" parent="1" vertex="1">
                    <mxGeometry x="965" y="760" width="70" height="34" as="geometry"/>
                </mxCell>
                <mxCell id="65" value="" style="line;strokeWidth=1;align=left;verticalAlign=middle;spacingTop=-1;spacingLeft=3;spacingRight=3;rotatable=0;labelPosition=right;points=[];portConstraint=eastwest;fillColor=#f5f5f5;strokeColor=#666666;fontColor=#333333;swimlaneLine=1;shadow=0;" parent="64" vertex="1">
                    <mxGeometry y="26" width="70" height="8" as="geometry"/>
                </mxCell>
                <mxCell id="66" value="" style="endArrow=block;endSize=16;endFill=0;html=1;entryX=0.538;entryY=1.011;entryDx=0;entryDy=0;entryPerimeter=0;exitX=0.5;exitY=0;exitDx=0;exitDy=0;fillColor=#f5f5f5;strokeColor=#666666;swimlaneLine=1;shadow=0;" parent="1" source="62" target="34" edge="1">
                    <mxGeometry width="160" relative="1" as="geometry">
                        <mxPoint x="860" y="750" as="sourcePoint"/>
                        <mxPoint x="892.04" y="700" as="targetPoint"/>
                    </mxGeometry>
                </mxCell>
                <mxCell id="67" value="" style="endArrow=block;endSize=16;endFill=0;html=1;entryX=0.81;entryY=0.983;entryDx=0;entryDy=0;entryPerimeter=0;exitX=0.5;exitY=0;exitDx=0;exitDy=0;fillColor=#f5f5f5;strokeColor=#666666;swimlaneLine=1;shadow=0;" parent="1" source="64" target="34" edge="1">
                    <mxGeometry width="160" relative="1" as="geometry">
                        <mxPoint x="920" y="770" as="sourcePoint"/>
                        <mxPoint x="909.96" y="702.8139999999999" as="targetPoint"/>
                    </mxGeometry>
                </mxCell>
                <mxCell id="68" value="&lt;&lt;Enum&gt;&gt;&#10;Aggregation" style="swimlane;fontStyle=1;align=center;verticalAlign=top;childLayout=stackLayout;horizontal=1;startSize=40;horizontalStack=0;resizeParent=1;resizeParentMax=0;resizeLast=0;collapsible=1;marginBottom=0;fillColor=#f5f5f5;strokeColor=#666666;fontColor=#333333;swimlaneLine=1;shadow=0;" parent="1" vertex="1">
                    <mxGeometry x="320" y="560" width="110" height="110" as="geometry"/>
                </mxCell>
                <mxCell id="69" value="MEAN&#10;SUM&#10;MAX&#10;MIN" style="text;align=left;verticalAlign=top;spacingLeft=4;spacingRight=4;overflow=hidden;rotatable=0;points=[[0,0.5],[1,0.5]];portConstraint=eastwest;fillColor=#f5f5f5;strokeColor=#666666;fontColor=#333333;swimlaneLine=1;shadow=0;" parent="68" vertex="1">
                    <mxGeometry y="40" width="110" height="70" as="geometry"/>
                </mxCell>
                <mxCell id="72" value="" style="endArrow=open;endFill=1;endSize=12;html=1;exitX=1;exitY=0.5;exitDx=0;exitDy=0;entryX=0.25;entryY=0;entryDx=0;entryDy=0;fillColor=#f5f5f5;strokeColor=#666666;swimlaneLine=1;shadow=0;" parent="1" source="46" target="68" edge="1">
                    <mxGeometry width="160" relative="1" as="geometry">
                        <mxPoint x="280" y="258" as="sourcePoint"/>
                        <mxPoint x="175" y="400" as="targetPoint"/>
                    </mxGeometry>
                </mxCell>
                <mxCell id="73" value="" style="endArrow=open;endFill=1;endSize=12;html=1;exitX=0;exitY=0.5;exitDx=0;exitDy=0;entryX=0.75;entryY=0;entryDx=0;entryDy=0;fillColor=#f5f5f5;strokeColor=#666666;swimlaneLine=1;shadow=0;" parent="1" source="42" target="68" edge="1">
                    <mxGeometry width="160" relative="1" as="geometry">
                        <mxPoint x="270" y="488" as="sourcePoint"/>
                        <mxPoint x="385" y="570" as="targetPoint"/>
                    </mxGeometry>
                </mxCell>
            </root>
        </mxGraphModel>
    </diagram>
</mxfile>